<svg version="1.1" xmlns="http://www.w3.org/2000/svg" viewBox="0 0 324.70408885432397 386.7839632255989" width="974.1122665629719" height="1160.3518896767966" filter="invert(93%) hue-rotate(180deg)">
  <!-- svg-source:excalidraw -->
  
  <defs>
    <style class="style-fonts">
      @font-face {
        font-family: "Virgil";
        src: url("https://excalidraw.com/Virgil.woff2");
      }
      @font-face {
        font-family: "Cascadia";
        src: url("https://excalidraw.com/Cascadia.woff2");
      }
    </style>
  </defs>
  <g stroke-linecap="round" transform="translate(105.14710702036024 10) rotate(0 52 54)"><path d="M17.88 12.89 C17.88 12.89, 17.88 12.89, 17.88 12.89 M17.88 12.89 C17.88 12.89, 17.88 12.89, 17.88 12.89 M4.58 34.8 C11 28.66, 15.11 22.7, 27.87 6.94 M3.67 36.61 C14.12 23.83, 23.99 14.22, 27.33 6.72 M1.12 43.08 C13.39 32.88, 23.02 19.42, 36.68 4.15 M3.03 43.09 C10.23 31.99, 19.61 23.26, 37.99 1.8 M2.75 49.31 C17.39 30.72, 31.9 13, 42.56 3.46 M2.21 48.64 C15.11 35.2, 27.35 18.99, 43.21 1.49 M-0.02 58.51 C13.74 43.13, 23.69 27.97, 48.59 0.65 M1.83 56.31 C17.85 37.37, 36.22 17.57, 48.62 1.86 M-1.03 62.38 C17.05 45.92, 32.76 30.61, 55.08 2.41 M0.14 62.47 C14.71 45.84, 29.86 30.3, 52.35 1.75 M1.87 68.35 C20.99 49.03, 38.13 29.91, 57.16 5.61 M3.43 66.23 C14.17 53.53, 26.12 38.03, 57.68 3.39 M5.25 70.98 C22.52 48.25, 39.41 29.19, 62.43 4.13 M5.46 70.36 C27.53 45.44, 48.7 20.73, 62.68 3.82 M7.61 76.12 C21.45 59.66, 33.57 45.8, 68.61 4.62 M6.99 73.91 C20.22 58.6, 31.71 45.02, 68.89 1.99 M9.68 78.12 C30.24 50.84, 53.79 23.44, 73.24 6.44 M9.17 78.88 C26.18 57.78, 42.37 39.74, 71.14 5.3 M10.87 80.78 C26.11 61.33, 45.07 42.07, 75.83 6.53 M9.96 81.64 C32.17 57.75, 52.41 35.1, 76.61 7.83 M13.43 85.5 C29.28 68.82, 45.83 48.41, 78.35 9.92 M13.35 86.59 C37.4 59.06, 61.96 29.82, 79.41 9.36 M14.2 89.02 C32.59 71.02, 47.4 51.25, 81.42 13.37 M13.12 90.27 C41.33 61.12, 65.96 29.79, 81.82 12.51 M18.84 93.78 C40.4 68.06, 64.12 40.95, 85.4 14.08 M16.17 93.32 C37.2 71.45, 55.07 50.19, 85.37 13.87 M20.92 94.46 C41.29 70.27, 60.22 49.4, 87.91 16.38 M21.51 95.35 C37.01 76.17, 54.73 56.13, 89.42 16.19 M23.49 97.08 C48.11 70.53, 73.67 40.29, 92.94 20.41 M23 97.65 C50.32 66.53, 76.1 35.35, 92.28 19.5 M28.68 97.99 C50.18 73.73, 71.54 48.23, 95.71 21.55 M26.91 98.51 C43.07 83.98, 55.43 67.7, 95.13 22.04 M28.82 102.53 C58.48 70.89, 82.45 41.01, 97.08 25.64 M30.05 101.45 C45.6 84.12, 61.53 64.92, 96.42 25.92 M33.27 106.47 C50.66 82.69, 69.34 64.15, 100.44 28.35 M32.7 105.1 C55.52 79.32, 78.51 52.75, 97.82 30.01 M38.82 106.94 C53.66 89, 70.24 70, 102.08 34.44 M37.99 105.6 C61.55 79.14, 85.14 51.49, 100.65 33.6 M43.95 105.16 C60.54 87.37, 75.79 68.2, 100.84 36.91 M42.22 107.75 C56 90.69, 70.63 73.74, 102.48 39.05 M47.25 105.33 C66.22 85.96, 79.57 69.5, 103.09 45.21 M46.25 107.46 C64.23 88.18, 80.77 67.72, 102.19 44.48 M52.93 109.6 C65.9 92.39, 79.43 74.33, 102.3 50.15 M51.15 107.11 C72.05 85.05, 91.88 60.9, 102.63 50.13 M57.88 108.24 C69.31 93.74, 81.97 78.59, 104.1 56.09 M56.2 107.22 C72.55 89.94, 86.52 74.69, 101.58 55.05 M62.59 109.55 C78.97 89.03, 92.45 71.37, 103.27 61.4 M61.87 106.85 C72.25 97.09, 81.72 85.21, 101.87 62.98 M72.84 103.1 C78.53 97.31, 85.98 87.19, 102.65 67.88 M72.53 104.25 C80.1 93.27, 88.28 84.95, 102.3 68.28 M82.08 99.42 C87.97 88.25, 95.64 82.67, 104.8 74.21 M80.9 99.09 C89.75 90.29, 97.78 80.59, 104.31 72.83" stroke="#40c057" stroke-width="0.5" fill="none"></path><path d="M41.34 0.2 C49.31 -2.3, 60.44 -0.21, 68.92 2.95 C77.41 6.11, 86.72 12.38, 92.25 19.15 C97.77 25.92, 100.49 34.87, 102.07 43.57 C103.65 52.27, 104.25 62.88, 101.7 71.35 C99.16 79.81, 93.55 88.46, 86.8 94.35 C80.06 100.24, 69.87 104.93, 61.22 106.7 C52.56 108.46, 43.07 107.98, 34.86 104.94 C26.65 101.91, 17.75 95.32, 11.95 88.5 C6.15 81.68, 1.64 72.81, 0.05 64.02 C-1.54 55.24, -0.6 44.39, 2.42 35.81 C5.45 27.23, 10.9 18.48, 18.18 12.54 C25.47 6.61, 41.04 1.93, 46.15 0.19 C51.26 -1.56, 48.65 1.14, 48.82 2.07 M59 1.75 C67.44 1.99, 78.81 5.9, 85.5 11.36 C92.19 16.83, 96.1 26.12, 99.14 34.54 C102.19 42.96, 104.66 52.83, 103.78 61.87 C102.89 70.92, 99.4 81.52, 93.84 88.79 C88.28 96.07, 78.43 102.59, 70.4 105.52 C62.38 108.44, 53.87 107.79, 45.69 106.34 C37.52 104.9, 28.33 102.14, 21.34 96.82 C14.36 91.5, 7.3 82.94, 3.79 74.43 C0.27 65.91, -0.94 54.76, 0.25 45.73 C1.43 36.7, 5.54 27.47, 10.91 20.25 C16.27 13.03, 24.58 5.76, 32.46 2.4 C40.33 -0.96, 53.86 0.24, 58.17 0.12 C62.48 -0.01, 58.3 0.93, 58.32 1.65" stroke="#000000" stroke-width="1" fill="none"></path></g><g transform="translate(129.60156868088637 53.81623381592644) rotate(0 27.775985717773438 10)"><text x="27.775985717773438" y="0" font-family="Virgil, Segoe UI Emoji" font-size="16px" fill="#000000" text-anchor="middle" style="white-space: pre;" direction="ltr" dominant-baseline="text-before-edge">Adenine</text></g><g stroke-linecap="round" transform="translate(114.22029342720947 261.7839632255989) rotate(0 53.5 57.5)"><path d="M17.96 14.29 C17.96 14.29, 17.96 14.29, 17.96 14.29 M17.96 14.29 C17.96 14.29, 17.96 14.29, 17.96 14.29 M7.98 34.29 C14.32 23.96, 22.09 12.99, 26.95 8.26 M6.92 33.69 C15.12 25.22, 22.39 15.26, 27.43 8.26 M4.5 38.87 C16.36 29.7, 24.65 19.31, 39.47 3.55 M6.66 39.16 C12.58 32.34, 17.9 24.84, 36.82 3.1 M3.58 49.03 C20.89 31.68, 31.3 15.93, 44.14 0.54 M5.64 46.76 C19.8 32.38, 31.95 16.3, 43.44 2.89 M3.52 53.23 C17.94 37.23, 33.83 23.56, 47.5 1.74 M4.77 54.31 C19.63 36.76, 35.04 18.05, 49.39 2.08 M3.55 62.79 C17.5 45.24, 32.06 25.87, 55.2 1.32 M3.72 60.4 C16.99 46.78, 28.03 31.56, 54.9 3 M2.58 68.17 C18.91 51.68, 33.01 31.15, 60.11 4.15 M2.03 69.69 C23.13 45.88, 43.69 22.22, 59.85 2.89 M5.11 75.28 C25.32 47.89, 47.16 24.13, 62.25 4.68 M4.54 73.26 C16.09 60.17, 27.42 45.84, 64.24 3.78 M4.09 79.37 C22.57 60.95, 36.6 40.24, 69.55 5.15 M4.74 77.53 C26.68 53.2, 47.65 30.12, 68.34 4.83 M8.15 83.26 C19.49 67.38, 34.12 48.6, 71.81 4.77 M7.41 82.49 C28.12 57.16, 48.92 34.01, 73.15 6.42 M9.6 84.66 C33.03 59.23, 57.3 31.88, 78.77 8.43 M9.15 84.12 C28.83 61.35, 48.58 38.29, 77.95 6.99 M10.57 89.53 C29.36 71.31, 45.38 53.14, 78.07 11.81 M11.95 89.72 C26.48 73.63, 39.74 57.15, 80.74 9.13 M13.57 91.86 C40.97 62.52, 66.4 28.69, 85.31 10.18 M12.23 92.72 C35.02 67.73, 56.2 42.29, 83.7 12.42 M16.24 98.2 C39.01 68.81, 65.74 40.26, 86.77 15.23 M15.06 97.32 C33.82 74.23, 55.03 50.55, 86.47 15.3 M17.38 100.79 C37.71 77.66, 58.21 52.89, 88.69 16.13 M18.64 98.55 C34.49 80.43, 52.74 60.45, 88.84 16.14 M22.26 103.08 C47.74 70.84, 75.13 43.11, 93.99 18.04 M21.14 101.88 C40.25 80.21, 59.77 56.94, 93.97 18.84 M24.06 105.57 C50.45 75.78, 76.49 48.6, 97.02 22.78 M24.53 104.07 C49.19 76.42, 73.46 50.76, 96.57 21.42 M27.79 108.35 C46.52 84.64, 64.7 62.6, 96.83 26.03 M27.99 105.75 C47.04 82.63, 66.27 60.53, 98.66 26.39 M31.01 109.63 C50.1 88.33, 68.32 64.04, 99.18 30.21 M31.15 109 C46.21 90.88, 60.65 74.72, 99.08 29.55 M34.56 110.41 C58.15 81.54, 80.73 56.48, 100.61 31.75 M34.24 109.98 C54.9 86.31, 76.16 60.47, 101.98 32.33 M37.86 113.4 C60.13 86.14, 80.42 60.77, 103.84 36.97 M37.84 113.01 C62.8 85.48, 87.33 56.49, 103.71 37.72 M44.27 113.21 C56.62 95.85, 71.43 82.32, 104.35 41.8 M43.79 112.63 C56.04 99.72, 68.64 85.54, 105.86 41.01 M46.51 114.08 C67.45 90.81, 92.23 63.27, 108.44 45.17 M48.98 114.51 C60.84 98.74, 73.31 84.01, 106.83 45.18 M53.96 113.24 C66.58 98.02, 77.74 83.73, 108.64 48.54 M52.19 114.74 C64.53 99.72, 77.75 84.93, 109.63 49.51 M56.62 115.68 C76.46 90.98, 95.53 69.49, 110.35 56.47 M58.51 115.67 C69.4 101.77, 80.01 88.71, 108.07 56.14 M63.25 115.5 C75.63 101.26, 83.85 88.37, 108.49 62.15 M64.88 113.31 C78.27 98.33, 93.07 81.68, 107.8 62.68 M73.96 109.94 C81.45 102.78, 85.83 93.32, 109.59 69.28 M73.26 108.34 C81.52 101.09, 87.97 92.91, 107.96 70.05 M82.36 105.25 C88.17 95.69, 94.86 90.93, 105.77 76.56 M82.16 104.06 C89.53 97.31, 95.23 90.06, 105.55 78.08" stroke="#4c6ef5" stroke-width="0.5" fill="none"></path><path d="M71.53 3.25 C79.97 5.6, 88.66 12.46, 94.55 19.79 C100.44 27.12, 105.2 37.83, 106.89 47.25 C108.57 56.66, 107.87 67.24, 104.66 76.31 C101.45 85.38, 94.48 95.36, 87.62 101.67 C80.77 107.97, 72.04 112.52, 63.53 114.12 C55.01 115.72, 45.13 114.55, 36.55 111.28 C27.96 108, 18.11 101.76, 12.01 94.48 C5.91 87.2, 1.28 77.04, -0.06 67.58 C-1.4 58.11, 0.96 46.58, 3.96 37.7 C6.97 28.81, 11.49 20.41, 17.96 14.28 C24.44 8.15, 33.17 2.53, 42.79 0.93 C52.42 -0.66, 69.39 3.29, 75.71 4.72 C82.04 6.15, 81.05 8.7, 80.74 9.53 M66.03 0.59 C74.68 2.01, 85.35 8.12, 91.7 14.82 C98.05 21.53, 101.79 31.54, 104.13 40.8 C106.47 50.07, 107.92 60.76, 105.72 70.42 C103.53 80.08, 97.35 91.57, 90.96 98.76 C84.57 105.95, 75.7 111.2, 67.38 113.54 C59.07 115.87, 49.82 115.16, 41.07 112.76 C32.33 110.36, 21.25 105.44, 14.91 99.13 C8.57 92.81, 5.18 84.22, 3.04 74.87 C0.9 65.51, -0.01 52.43, 2.08 43 C4.16 33.57, 9.43 24.89, 15.55 18.3 C21.67 11.71, 30.16 6.01, 38.8 3.46 C47.44 0.91, 62.97 3.21, 67.4 3 C71.82 2.8, 65.56 1.71, 65.34 2.22" stroke="#000000" stroke-width="1" fill="none"></path></g><g transform="translate(146.62609595355337 309.1253233073724) rotate(0 21.26398468017578 10)"><text x="21.26398468017578" y="0" font-family="Virgil, Segoe UI Emoji" font-size="16px" fill="#000000" text-anchor="middle" style="white-space: pre;" direction="ltr" dominant-baseline="text-before-edge">Lysop</text></g><g stroke-linecap="round"><g transform="translate(160.1966944529292 129.42667181196526) rotate(0 5.329135408563616 61.62374434439357)"><path d="M-1 0.8 C-0.31 9.46, 2.46 30.48, 4.16 50.86 C5.86 71.23, 8.22 111.28, 9.17 123.07 M0.67 0.18 C1.25 9.1, 1.6 32.01, 3.44 52.16 C5.27 72.32, 10.55 109.42, 11.66 121.12" stroke="#000000" stroke-width="1" fill="none"></path></g></g><mask></mask><g mask="url(#mask-rzmZw1NVKmLp3vSREEGVK)" stroke-linecap="round"><g transform="translate(220.86023820740905 58.98281356522364) rotate(0 39.04133498789912 135.74891694348756)"><path d="M-2.78 1.36 C10.7 22.1, 77.73 78.68, 80.75 123.77 C83.76 168.85, 26.02 247.4, 15.31 271.87 M0.91 -0.37 C14.12 19.61, 76.89 74.95, 79.1 119.63 C81.3 164.3, 24.26 243.4, 14.13 267.67" stroke="#000000" stroke-width="1" fill="none"></path></g><g transform="translate(220.86023820740905 58.98281356522364) rotate(0 39.04133498789912 135.74891694348756)"><path d="M20.72 239.58 C19.56 248.37, 19.38 258.83, 15.82 265.06 M17.48 238.22 C18.21 249.42, 15.48 259.02, 14.26 267.33" stroke="#000000" stroke-width="1" fill="none"></path></g><g transform="translate(220.86023820740905 58.98281356522364) rotate(0 39.04133498789912 135.74891694348756)"><path d="M38.68 249.5 C32.25 255, 26.76 262.52, 15.82 265.06 M35.44 248.14 C30.22 255.65, 21.36 261.87, 14.26 267.33" stroke="#000000" stroke-width="1" fill="none"></path></g></g><mask id="mask-rzmZw1NVKmLp3vSREEGVK"><rect x="0" y="0" fill="#fff" width="400.5281016106716" height="428.406696323552"></rect><rect x="286.35211436701934" y="171.14355913180975" fill="#000" width="28.351974487304688" height="20" opacity="1"></rect></mask><g transform="translate(286.3521143670192 171.14355913180975) rotate(0 -26.45054117171111 23.588171376901442)"><text x="14.175987243652344" y="0" font-family="Virgil, Segoe UI Emoji" font-size="16px" fill="#000000" text-anchor="middle" style="white-space: pre;" direction="ltr" dominant-baseline="text-before-edge">Ade</text></g><g mask="url(#mask-O3QRVHt43EZMaRcpw4uht)" stroke-linecap="round"><g transform="translate(88.55956920275258 57.03644533509939) rotate(0 -26.782606541586148 134.39118934972845)"><path d="M-0.47 2.58 C-11.42 26.25, -66.74 98.09, -64.55 142.21 C-62.36 186.32, -0.67 246.62, 12.69 267.27 M-4.17 1.51 C-15.5 25.39, -68.57 100.76, -66.18 144.33 C-63.78 187.89, -3.69 242.08, 10.19 262.9" stroke="#000000" stroke-width="1" fill="none"></path></g><g transform="translate(88.55956920275258 57.03644533509939) rotate(0 -26.782606541586148 134.39118934972845)"><path d="M-1.7 33.78 C-7.71 20.25, 0.97 14.3, 0.9 1.47 M-4.76 32.09 C-5.3 24.33, -1.75 13.18, -1.68 2.88" stroke="#000000" stroke-width="1" fill="none"></path></g><g transform="translate(88.55956920275258 57.03644533509939) rotate(0 -26.782606541586148 134.39118934972845)"><path d="M-19.57 23.7 C-19.47 13.67, -4.68 11.17, 0.9 1.47 M-22.64 22.01 C-17.46 17.28, -8.19 9.35, -1.68 2.88" stroke="#000000" stroke-width="1" fill="none"></path></g></g><mask id="mask-O3QRVHt43EZMaRcpw4uht"><rect x="0" y="0" fill="#fff" width="268.2036717610848" height="422.1892658017572"></rect><rect x="10" y="192.02353414666348" fill="#000" width="25.775985717773438" height="20" opacity="1"></rect></mask><g transform="translate(10 192.0235341466635) rotate(0 51.776962661166436 -0.5958994618356712)"><text x="12.887992858886719" y="0" font-family="Virgil, Segoe UI Emoji" font-size="16px" fill="#000000" text-anchor="middle" style="white-space: pre;" direction="ltr" dominant-baseline="text-before-edge">Lys</text></g></svg>