<svg version="1.1" xmlns="http://www.w3.org/2000/svg" viewBox="0 0 982.9710871659197 444.42811988948665" width="2948.913261497759" height="1333.28435966846" filter="invert(93%) hue-rotate(180deg)">
  <!-- svg-source:excalidraw -->
  
  <defs>
    <style class="style-fonts">
      @font-face {
        font-family: "Virgil";
        src: url("https://excalidraw.com/Virgil.woff2");
      }
      @font-face {
        font-family: "Cascadia";
        src: url("https://excalidraw.com/Cascadia.woff2");
      }
    </style>
  </defs>
  <g stroke-linecap="round" transform="translate(432.9893946688478 40.63956634204487) rotate(0 52 54)"><path d="M16.46 15.63 C16.46 15.63, 16.46 15.63, 16.46 15.63 M16.46 15.63 C16.46 15.63, 16.46 15.63, 16.46 15.63 M5.16 36.01 C10.75 25.87, 17.4 21.82, 28.47 7.51 M6.61 33.97 C11.67 28.22, 17.62 21.03, 30.17 6.55 M4.89 43.25 C13.71 30.54, 18.23 25.53, 38.01 0.79 M3.88 40.43 C13.27 32.77, 22.68 22.6, 39.1 2.23 M5.63 47.52 C16.5 33.69, 31.92 15.05, 43.65 -0.07 M4.16 47.42 C19.14 31.21, 34.5 12.43, 44.93 1.83 M4.44 55.57 C22.77 35.47, 39.21 15.46, 50.16 2.52 M5.1 53.21 C21.25 36.06, 37.21 16.74, 49.88 1.45 M4.55 60.19 C16.85 44.38, 29.57 32.39, 53.6 3.93 M4.27 58.71 C24.71 37.04, 44.51 13.91, 53.67 3.28 M4.45 67.71 C16.42 53.52, 28.4 38.22, 60.38 1.58 M3.77 67.68 C18.13 50.87, 35.09 32.59, 59.94 2.42 M2.89 71.46 C25.4 50.12, 44.06 28.67, 65.01 1.21 M4.43 72.69 C18.7 56.31, 32.91 39.52, 65.34 3.78 M8.13 76.87 C29.91 46.95, 55.78 17.58, 67.17 3.81 M6.61 74.97 C24.15 55.88, 43.03 33.99, 68.02 3.68 M7.58 78.14 C25.96 61.65, 40.46 40.76, 70.12 7.17 M9.05 79.6 C24.91 58.7, 42.88 37.98, 71.37 5.97 M10.88 83.47 C36.01 55.3, 61.71 22.64, 77.09 9.13 M11.46 83.48 C35.09 53.18, 61.85 23.34, 75.83 7.93 M13.04 88.42 C28.22 66.79, 44.62 51.63, 79.77 11.81 M12.95 87.16 C27.41 69.97, 41.46 54.33, 78.71 11.12 M12.11 93.52 C39.27 62.93, 62.56 37.62, 83.33 12.11 M13.12 91.25 C30.18 73.73, 44.86 54.3, 82.65 12.54 M18.32 95.36 C34.18 73.29, 55.52 53.09, 86.88 13.49 M18.53 94 C42.13 66.21, 65.15 38.29, 85.37 14.97 M22.51 94.85 C38.16 76.66, 55.06 56.78, 87.84 17.18 M20.57 96.24 C41.8 70.06, 65.06 43.4, 89.48 16.85 M23.85 96.66 C50.5 67.38, 74.55 41.35, 90.43 18.47 M24.5 97.45 C43.74 74.4, 64.48 52.57, 92.32 21.19 M28.94 98.51 C42.34 82.85, 58.51 63.67, 93.32 26.18 M27.95 99.65 C44.82 80.24, 62.11 61.48, 92.99 23.64 M32.17 102.4 C54.89 76.08, 79.16 46.12, 97.44 27.14 M32.63 101.28 C52.12 78.31, 72.91 54.08, 95.53 27.65 M33.56 105.36 C60.04 76.89, 85.29 46.35, 96.42 32.27 M35.59 104.58 C53.76 82.95, 70.1 64.48, 96.73 31.09 M39.12 106.75 C54.26 89.11, 67.36 75.91, 99.6 36.74 M38.91 105.45 C62.2 80.22, 84.16 54.45, 100.56 35.12 M43.25 105.65 C62.52 84.61, 83.72 57.9, 100.55 40.28 M43.51 105.57 C62.56 85.07, 79.32 65.32, 101.96 39.09 M50.57 107.76 C69.51 82.32, 92.5 54.4, 104.67 42.63 M48.32 105.82 C62.75 90.57, 76.34 73.97, 103.97 42.6 M54.25 106.26 C73.47 85.65, 93.66 64.23, 105.16 49.14 M54.01 105.85 C72.6 85.45, 89.67 66.02, 104.93 47.72 M57.83 104.64 C70.78 90.28, 83.13 80.57, 103.85 55.61 M60.19 105.5 C69.68 94.51, 80.5 81.79, 104.74 54.53 M65.56 105.69 C75.27 95.86, 83.39 86.26, 103.11 62.44 M65.1 106.36 C75.69 94.93, 85.15 81.62, 104.2 59.77 M76.8 100.92 C80.97 92.36, 90.12 87.35, 103.57 67.78 M75.4 99.94 C82.94 90.14, 90.78 81.99, 105.99 66.74 M86.67 91.99 C90.14 86.91, 96.93 84.66, 105.21 71.09 M86.2 93.62 C92.97 85.1, 101.46 77.04, 105.24 71.41" stroke="#40c057" stroke-width="0.5" fill="none"></path><path d="M66.72 2.69 C74.8 4.11, 83.06 9.63, 88.92 15.8 C94.78 21.97, 99.7 30.76, 101.91 39.71 C104.12 48.66, 104.47 60.77, 102.2 69.5 C99.93 78.24, 94.44 86.08, 88.28 92.13 C82.11 98.18, 73.54 103.64, 65.2 105.79 C56.86 107.94, 46.8 107.48, 38.23 105.04 C29.67 102.6, 19.82 97.42, 13.82 91.16 C7.81 84.9, 4.1 76.05, 2.22 67.49 C0.34 58.92, 0.18 48.38, 2.53 39.77 C4.87 31.15, 10.35 22.3, 16.31 15.8 C22.27 9.31, 28.79 2.8, 38.27 0.8 C47.75 -1.21, 66.23 2.33, 73.19 3.78 C80.16 5.22, 80.52 8.42, 80.07 9.44 M49.53 1.18 C57.89 0.11, 69.75 2.09, 77.57 6.06 C85.39 10.03, 92.09 17.41, 96.46 24.99 C100.83 32.56, 103.44 42.57, 103.8 51.49 C104.15 60.42, 102.4 70.73, 98.58 78.53 C94.76 86.32, 88.4 93.35, 80.87 98.29 C73.33 103.23, 62.15 107.69, 53.38 108.15 C44.61 108.61, 35.6 105.41, 28.24 101.05 C20.89 96.7, 13.79 89.42, 9.25 82.02 C4.7 74.63, 1.44 65.71, 0.97 56.67 C0.51 47.63, 2.34 35.68, 6.47 27.78 C10.6 19.88, 18.61 13.7, 25.74 9.29 C32.87 4.87, 45.19 2.45, 49.24 1.3 C53.28 0.14, 50.08 1.45, 50.03 2.37" stroke="#000000" stroke-width="1" fill="none"></path></g><g transform="translate(457.44385632937383 84.45580015797128) rotate(0 27.775985717773438 10)"><text x="27.775985717773438" y="0" font-family="Virgil, Segoe UI Emoji" font-size="16px" fill="#000000" text-anchor="middle" style="white-space: pre;" direction="ltr" dominant-baseline="text-before-edge">Adenine</text></g><g stroke-linecap="round" transform="translate(10 169.5281797934913) rotate(0 52 54)"><path d="M18.17 11.82 C18.17 11.82, 18.17 11.82, 18.17 11.82 M18.17 11.82 C18.17 11.82, 18.17 11.82, 18.17 11.82 M2.6 37.32 C11.42 25.55, 20.48 14.17, 27.92 10.23 M3.21 35.93 C10.39 27.19, 15.48 19.54, 26.95 8.46 M0.8 43.81 C13.88 26.73, 27.34 10.74, 34.27 2.43 M3.48 42.35 C9.28 34.45, 17.22 25.97, 36.06 4.79 M3.01 47.11 C13.82 32.36, 28.3 19.65, 43.37 0.11 M2.24 47.53 C14.33 35.15, 26.27 22.16, 42.99 0.92 M2.36 55.93 C20.34 34.34, 38.12 14.59, 49.34 2.86 M3.44 54.1 C12.42 41.74, 21.54 30.48, 47.8 1.13 M1.36 62.32 C18.39 43.13, 37.82 20.89, 55.31 0.78 M2.44 60.38 C11.96 49.25, 22.42 36.22, 54.03 2.23 M2.24 66.56 C20.63 45.09, 36.18 24.87, 57.97 3.28 M3.76 65.96 C20.9 45.7, 37.82 26.22, 58.53 0.96 M6.04 70.5 C21.96 48.23, 36.82 31.22, 64.57 1.56 M5.55 69.59 C29.1 43.04, 52.31 15.21, 63.95 3.09 M6.47 72.29 C27.66 48.19, 50.92 21.87, 67.38 2.1 M6.79 72.62 C19.87 57.89, 33.39 42.4, 68.48 1.56 M6.85 76.35 C19.88 62.84, 34.43 48.92, 72.8 6.21 M7.65 77.52 C25.28 58.03, 43.24 39.42, 72.41 4.66 M9.92 80.15 C31.85 59.06, 51.94 36.64, 76.97 8.92 M10.65 81.3 C31.32 58.08, 50.56 36.64, 75.05 7.51 M12.28 87.69 C35.35 61.6, 55.87 33.08, 79.02 11.11 M12.46 85.67 C28.61 67.04, 47.17 47.25, 77.38 8.81 M14.1 91.77 C40.16 59.62, 64.96 30.95, 81.38 10.65 M13.03 89.85 C30.51 69.59, 47.98 49.47, 81.76 12.7 M18.19 94.71 C45.12 60.01, 71.86 29.09, 84.24 15.99 M15.99 91.99 C39.97 65.46, 63.65 37.26, 85.73 14.83 M20.5 94.38 C37.3 73.39, 57.97 53.65, 88.65 15.35 M20.55 93.79 C47.13 64.36, 73.82 34.75, 88.51 16.29 M25.13 96.96 C39.55 75.04, 59.23 57.45, 90.23 18.49 M23.89 97.87 C45.75 73.56, 66.35 48, 90.06 19.95 M25.43 99.38 C42.96 82.73, 57.8 61.9, 94.26 21.96 M27.6 98.87 C45.18 77.35, 65.11 55.97, 93.57 22.35 M28.42 101.64 C54.02 75.35, 74.86 50.63, 96.8 28.12 M29.51 102.39 C46.68 81.88, 64.68 61.98, 95.94 25.34 M33.85 103.02 C57.64 74.76, 83.25 44.49, 99.04 30.07 M34.13 103.78 C57.59 74.02, 83.14 45.14, 97.49 29.66 M38.7 106.33 C58.54 81.91, 83.3 54.25, 98.46 33.5 M36.47 107.08 C55.63 84.3, 74.19 62.44, 100.54 33.37 M41.43 104.67 C58.51 86.89, 77.2 66.48, 99.84 36.85 M41.75 106.35 C57.62 88.05, 74.57 70.68, 101.77 38.67 M47.29 105.43 C68.2 82.63, 88.58 56.3, 102.41 40.62 M46 106.35 C61.07 90.47, 77.41 72.4, 102.72 41.82 M52.54 109.07 C69.89 87.67, 87.56 66.17, 106.88 44.1 M51.71 107.88 C68.36 87.77, 83.89 69.15, 106.23 44.49 M56.3 109.54 C66.67 97.34, 77 83.95, 103.95 53.64 M57.05 106.88 C67.8 95.27, 78.32 82.16, 104.32 52.69 M62.29 108.61 C72.51 95.45, 85.82 77.97, 104.53 58.56 M60.95 107.37 C76.58 89.35, 91.37 72.31, 103.78 59.26 M73.12 104.81 C82.53 90.47, 95.57 72.99, 105.03 63.79 M70.8 102.96 C84.42 90.3, 94.5 75.18, 104.82 65.15 M81.69 100.25 C86.01 91.65, 93.42 86.14, 101.69 70.76 M81.21 98.42 C88.76 88.82, 96.96 78.9, 102.79 72.95" stroke="#40c057" stroke-width="0.5" fill="none"></path><path d="M68.9 2.18 C76.98 4.53, 85.99 12.94, 91.68 19.86 C97.38 26.78, 101.46 35.07, 103.07 43.68 C104.68 52.28, 104.18 63.1, 101.34 71.51 C98.5 79.92, 92.85 88.28, 86.04 94.12 C79.23 99.96, 68.94 104.71, 60.48 106.53 C52.01 108.34, 43.13 107.87, 35.23 105.02 C27.32 102.17, 18.66 96.2, 13.04 89.41 C7.42 82.62, 3.33 73.31, 1.51 64.26 C-0.31 55.2, -0.63 43.8, 2.13 35.08 C4.89 26.36, 11.27 17.65, 18.07 11.93 C24.88 6.22, 33.11 1.56, 42.97 0.8 C52.84 0.05, 70.27 5.23, 77.27 7.42 C84.28 9.61, 85.34 13.25, 85 13.94 M71.84 3.59 C79.52 6, 87.39 13.16, 92.77 20.17 C98.15 27.19, 102.67 36.92, 104.12 45.68 C105.57 54.43, 104.91 64.21, 101.48 72.72 C98.05 81.22, 90.47 91.02, 83.54 96.71 C76.6 102.39, 68.15 105.68, 59.88 106.8 C51.6 107.92, 41.85 106.56, 33.87 103.42 C25.9 100.29, 17.49 95.13, 12 87.99 C6.51 80.86, 2.08 69.48, 0.94 60.63 C-0.21 51.77, 2.11 42.84, 5.13 34.86 C8.16 26.88, 12.5 18.26, 19.08 12.74 C25.65 7.23, 36.09 3.03, 44.6 1.79 C53.11 0.55, 65.79 4.98, 70.12 5.3 C74.44 5.62, 70.77 3.06, 70.55 3.73" stroke="#000000" stroke-width="1" fill="none"></path></g><g transform="translate(32.214463796756604 203.3444136094177) rotate(0 30.015983581543026 20)"><text x="30.01598358154297" y="0" font-family="Virgil, Segoe UI Emoji" font-size="16px" fill="#000000" text-anchor="middle" style="white-space: pre;" direction="ltr" dominant-baseline="text-before-edge">Lysine </text><text x="30.01598358154297" y="20" font-family="Virgil, Segoe UI Emoji" font-size="16px" fill="#000000" text-anchor="middle" style="white-space: pre;" direction="ltr" dominant-baseline="text-before-edge">cheater</text></g><g stroke-linecap="round" transform="translate(443.5303417355924 302.69785418690435) rotate(0 53.5 57.5)"><path d="M8.7 26.11 C8.7 26.11, 8.7 26.11, 8.7 26.11 M8.7 26.11 C8.7 26.11, 8.7 26.11, 8.7 26.11 M4.69 35.46 C17.07 26.17, 24.97 13.65, 32.57 7.63 M4.99 35.29 C14.44 26.06, 23.28 17.03, 29.82 5.97 M1.08 44.32 C15.38 28, 28.7 13.55, 39.57 6.78 M2.64 46.38 C15.13 32.14, 26.33 17.21, 38.62 5.3 M1.52 53.9 C10.41 42.04, 20.61 29.86, 45.45 3.68 M0.96 54.72 C8.7 43.43, 19.6 32.89, 44.76 3.63 M2.24 59.9 C21.12 38.38, 38.18 16.25, 51.88 4.14 M0.67 58.83 C15.27 41.98, 31.52 24.1, 49.84 2.11 M4.04 62.59 C26.19 37.58, 44.55 12.81, 58.78 0.01 M1.43 63.93 C19.65 45.27, 35.83 25.71, 58.4 -0.31 M2.6 67.28 C21.26 48.89, 41.01 24.14, 62.86 3.73 M3.41 68.98 C19.77 48.75, 36.64 30.91, 61.79 2.28 M2.91 74.28 C26.82 48.73, 49.52 24.58, 67.74 3.69 M5.2 73.4 C23.49 51.88, 43.1 27.83, 65.76 2.76 M5.08 77.23 C19.38 61.53, 34.75 41.79, 70.63 3.88 M4.91 77.89 C18.49 63.48, 31.63 48.65, 70.42 3.21 M6.04 85.27 C23.26 67.22, 37.6 45.82, 73.32 4.05 M7.29 83.29 C25.9 62.53, 44.79 40.26, 74.67 5.76 M11.25 87.11 C25.31 70.87, 38.64 50.38, 77.91 7.75 M8.82 87.27 C25.89 67.67, 43.54 47.88, 77.25 7.21 M9.97 88.74 C39.34 59.43, 64.99 28.07, 79.97 9.83 M12.28 90.65 C30.15 66.57, 50.93 46.49, 81.33 9.13 M12.77 94.69 C41.4 59.92, 67.94 31.56, 86.87 9.42 M13.77 93.31 C34.37 70.72, 54.46 47, 86.17 11.54 M18.08 94.03 C44.24 65.46, 74.22 31.24, 87.59 12.69 M16.52 94.76 C34.31 77.9, 49.31 58.69, 88.33 14.23 M19.96 100.85 C41.32 73.89, 62.86 49.88, 91.07 17.84 M20.06 99.36 C35.58 80.68, 50.28 64.24, 89.39 18.42 M21.76 104.06 C42.18 78.51, 63.85 54.97, 92.69 21.11 M21.29 102.59 C46.63 72.27, 72.96 40.97, 93.8 19.35 M23.9 103.84 C47.49 78.68, 69.08 52.73, 94.7 24.54 M25.63 104.23 C44.63 83.18, 65.13 59.41, 96.69 22.72 M29.02 106.66 C49.63 85.33, 68.24 58.65, 99.88 25.72 M29.47 106 C54.66 76.74, 80.9 47.93, 98.91 26.98 M32.3 106.77 C52.66 87.27, 71.99 67.63, 98.71 30.99 M32 107.63 C54.58 83.84, 77.39 59.91, 99.57 31.27 M37.99 109.99 C55.64 85.87, 77.18 63.68, 103.76 33.01 M36.97 109.32 C62.53 80.17, 87.32 50.2, 103.79 33.52 M41.01 111.41 C52.54 94.9, 66.54 82.95, 102.11 38.49 M41.77 112.01 C58.5 91.9, 76.52 70.63, 104.51 38.84 M43.51 111.65 C57.51 95.54, 71.28 80.07, 105.72 41.13 M45.34 112.33 C59.41 95.36, 74.92 78.31, 106.25 43.11 M49.85 113.14 C72.41 86.71, 93.62 62.73, 106.58 47.48 M48.48 113.46 C69.98 89.7, 89.29 66.27, 105.6 47.39 M50.46 117.08 C73.52 92.01, 94.86 65.24, 107.78 53.08 M51.13 116.74 C64.13 102.22, 76.88 88.36, 107.69 52.77 M57.38 114.44 C75.44 95.44, 93.14 76.54, 110.54 55.78 M57.28 115.28 C69.74 102.49, 83.05 87.82, 108.59 58.29 M63.64 112.79 C82.97 92.62, 100.49 72.52, 108.04 61.97 M63.73 113.39 C77.51 99.14, 89.19 83.96, 108.52 63.75 M72.13 113.69 C82.28 96.66, 98.19 81.88, 105.81 74.35 M70.29 112.68 C79.29 103.6, 89.11 93.66, 105.61 72.16 M80.05 108.5 C83.06 102.8, 87.91 96.9, 103.39 81.1 M79.68 110.39 C85.9 102.95, 91.62 95.46, 102.91 81.51" stroke="#4c6ef5" stroke-width="0.5" fill="none"></path><path d="M29.53 5.56 C36.79 0.51, 48.09 -0.93, 57.05 -0.43 C66 0.07, 76.05 3.3, 83.27 8.57 C90.49 13.85, 96.33 22.47, 100.37 31.23 C104.41 39.98, 107.78 51.36, 107.51 61.08 C107.23 70.8, 103.64 81.5, 98.73 89.55 C93.82 97.6, 86.27 105.29, 78.06 109.37 C69.84 113.45, 58.46 114.83, 49.42 114.01 C40.39 113.2, 31.07 109.64, 23.84 104.48 C16.62 99.33, 10.15 91.48, 6.08 83.1 C2 74.73, -1.08 63.74, -0.62 54.23 C-0.17 44.71, 3.32 34.33, 8.79 26.01 C14.26 17.68, 27.58 7.73, 32.18 4.28 C36.78 0.84, 36.04 4.36, 36.4 5.35 M48.35 -0.41 C56.93 -2.37, 68.37 -0.59, 76.33 3.43 C84.3 7.46, 90.99 15.87, 96.15 23.73 C101.31 31.6, 106 41.24, 107.27 50.63 C108.54 60.01, 107.29 71.04, 103.75 80.04 C100.21 89.03, 93.38 98.99, 86.03 104.6 C78.69 110.22, 68.49 112.63, 59.7 113.72 C50.91 114.81, 41.65 114.64, 33.28 111.14 C24.9 107.64, 14.97 100.42, 9.46 92.72 C3.95 85.02, 1.24 74.47, 0.21 64.96 C-0.83 55.46, -0.29 44.86, 3.24 35.68 C6.78 26.51, 14.11 15.74, 21.41 9.91 C28.71 4.09, 42.78 2.2, 47.05 0.74 C51.32 -0.71, 46.77 0.49, 47.01 1.18" stroke="#000000" stroke-width="1" fill="none"></path></g><g transform="translate(475.9361442619363 350.0392142686778) rotate(0 21.26398468017578 10)"><text x="21.26398468017578" y="0" font-family="Virgil, Segoe UI Emoji" font-size="16px" fill="#000000" text-anchor="middle" style="white-space: pre;" direction="ltr" dominant-baseline="text-before-edge">Lysop</text></g><g stroke-linecap="round" transform="translate(865.9710871659197 164.4540275375698) rotate(0 53.5 57.5)"><path d="M16.81 17.27 C16.81 17.27, 16.81 17.27, 16.81 17.27 M16.81 17.27 C16.81 17.27, 16.81 17.27, 16.81 17.27 M3.82 38.41 C13.48 29.59, 20.14 21.56, 29.56 6.16 M5.08 38.64 C10.25 28.79, 19.33 20.57, 30.09 7.22 M2.82 43.36 C15.08 36.04, 22.46 23.54, 43.17 2.13 M4.41 43.04 C18.62 28.26, 30.57 11.92, 40.38 2.12 M3.75 49.13 C17.37 36.69, 25.88 24.21, 46.63 3.58 M4.98 50.52 C19.41 33.6, 33.72 17.85, 46.48 2.32 M2.27 58.4 C21.27 39.21, 35.79 20.09, 50.79 0.51 M4.21 55.98 C16.33 41.69, 30.12 27.53, 52.65 2.3 M2.39 61.91 C16.41 48.86, 27.16 33.69, 58.71 0.28 M4.41 62.24 C19.22 44.6, 33.62 28.5, 56.28 1.41 M4.24 66.95 C17.85 55.85, 28.64 40.74, 61.27 2.5 M3.96 69.18 C21.41 49.83, 38.79 30.04, 60.9 1.4 M6.4 74.32 C26 52.01, 44.53 29.95, 68.91 3.59 M4.99 73.31 C19.74 55.37, 34.92 36.73, 67.29 1.57 M4.4 76.37 C21.47 61.62, 33.42 43.88, 69.49 3.54 M5.26 78.47 C20.31 62.18, 32.84 46.79, 70.68 4.14 M7.1 80.77 C32.21 51.02, 57.56 23.09, 72.51 8.06 M7.95 82.16 C25.76 62.26, 41.41 43.41, 74.4 7.11 M10.45 84.18 C32.22 59.43, 54.45 32.97, 76.36 6.94 M10.71 85.91 C36.13 54.93, 64.69 24.37, 78.47 7.16 M11.26 91.09 C27.12 70.33, 45.85 48.48, 82.02 11.77 M12.9 90.69 C39.35 59.39, 68.02 28.08, 80.71 10 M12.88 95.51 C41.91 62.2, 67.13 32.1, 84.8 11.9 M14.6 93.25 C36.78 68.18, 60.1 41.6, 83.76 13.02 M16.35 98.23 C31.08 77.91, 45.73 60.26, 88.09 13.23 M15.12 98 C30.16 80.48, 44.73 62.27, 88.35 14.65 M20.11 98.85 C47.19 69.05, 73.13 36.07, 91.13 18.21 M18.11 101.64 C40.94 74.55, 65.67 45.44, 90.32 16.99 M22.46 101.74 C49.21 72.36, 78.6 40.66, 96.06 18.57 M21.39 101.81 C45.93 75.48, 68.24 50.15, 95.13 19.17 M25.29 104.07 C41.52 86.16, 58.96 64.51, 95.06 24.58 M26.08 103.68 C42.36 85.97, 56.59 70, 96.28 23.27 M28.49 105.31 C50.47 81.91, 69.67 59.62, 98.02 29.05 M30.3 106.1 C44.22 90.82, 57.2 73.93, 98.49 26.88 M34.36 110.96 C46.41 91.07, 64.57 70.02, 99 28.83 M33.07 109.95 C49.6 89.77, 68.06 68.43, 101.39 31.27 M36.04 111.78 C57.68 87.19, 78.53 65.78, 102.02 35.54 M36.02 110.03 C52.37 92.77, 66.24 74.16, 102.8 34.75 M39.24 114.61 C59.34 89.23, 81.3 65.98, 104.05 39.87 M40.57 112.42 C65.98 82.93, 90.28 53.04, 105.03 37.54 M44.01 112.06 C59.84 95.17, 73.12 78.34, 107.52 43.79 M45 112.89 C60.72 96.5, 75.81 79.31, 106.79 42.68 M50.5 113.27 C64.87 95.84, 80.97 79.65, 107.35 44.79 M49.66 112.24 C63.16 96.73, 79.27 80.13, 109.57 44.85 M54.71 111.96 C73.26 93.24, 88.46 72.94, 109.41 50.44 M56.02 112.95 C72.5 93.91, 88.95 74.25, 109.52 51.56 M62.21 112.59 C74.51 97.77, 83.05 85.06, 106.84 56.55 M61.84 112.04 C74.37 98.4, 88.42 81.71, 109.11 57.94 M67.89 110.44 C74.72 100.86, 84.84 93.12, 109.89 62.48 M66.24 111.68 C74.34 103.28, 84.12 92.62, 108.34 64.68 M79.64 103.52 C87.02 96.98, 95.35 84.39, 105.05 72.44 M78.77 105.82 C84.59 96.87, 91.03 90.27, 105.27 73.92 M89.76 97.85 C89.95 97.72, 90.07 97.52, 90.54 97.24 M89.78 97.95 C90.01 97.64, 90.25 97.42, 90.45 97.16" stroke="#4c6ef5" stroke-width="0.5" fill="none"></path><path d="M40.52 0.84 C48.32 -2.23, 58.31 -1.21, 66.95 1.56 C75.59 4.32, 85.86 10.42, 92.36 17.43 C98.86 24.44, 103.71 34.27, 105.92 43.61 C108.14 52.94, 108.31 64.42, 105.66 73.45 C103.01 82.47, 96.55 91.28, 90.04 97.74 C83.53 104.2, 75.01 109.71, 66.59 112.21 C58.17 114.72, 48.18 115.16, 39.5 112.77 C30.82 110.38, 20.84 104.68, 14.52 97.88 C8.2 91.08, 3.72 81.33, 1.6 71.95 C-0.53 62.57, -0.77 50.73, 1.77 41.61 C4.32 32.48, 9.31 24.03, 16.87 17.2 C24.43 10.38, 40.91 3.36, 47.13 0.66 C53.34 -2.03, 54.11 0.07, 54.18 1.05 M39.77 1.97 C47.68 -0.95, 59.68 -0.97, 68.57 1.48 C77.46 3.93, 86.81 9.59, 93.1 16.68 C99.38 23.77, 104.23 34.77, 106.28 44.01 C108.34 53.25, 107.77 62.84, 105.43 72.12 C103.08 81.41, 98.82 92.64, 92.23 99.7 C85.63 106.76, 74.73 112.08, 65.84 114.48 C56.95 116.88, 47.56 116.68, 38.91 114.11 C30.25 111.53, 20.19 106.31, 13.9 99.04 C7.6 91.77, 3.26 79.96, 1.16 70.51 C-0.93 61.06, -1.04 51.42, 1.32 42.34 C3.68 33.26, 8.78 23, 15.32 16.04 C21.85 9.08, 36.34 2.72, 40.52 0.6 C44.7 -1.52, 40.27 2.25, 40.38 3.32" stroke="#000000" stroke-width="1" fill="none"></path></g><g transform="translate(887.864888654666 201.79538761934333) rotate(0 31.775985717773438 20)"><text x="31.775985717773438" y="0" font-family="Virgil, Segoe UI Emoji" font-size="16px" fill="#000000" text-anchor="middle" style="white-space: pre;" direction="ltr" dominant-baseline="text-before-edge">Adenine </text><text x="31.775985717773438" y="20" font-family="Virgil, Segoe UI Emoji" font-size="16px" fill="#000000" text-anchor="middle" style="white-space: pre;" direction="ltr" dominant-baseline="text-before-edge">cheater</text></g><g stroke-linecap="round"><g transform="translate(492.4422640811006 164.46952013369332) rotate(0 4.310085839604994 61.25541537932477)"><path d="M-0.64 0.34 C-0.11 8.62, 0.94 29.66, 2.59 50.11 C4.24 70.56, 8.01 110.89, 9.26 123.04 M1.23 -0.53 C2.16 7.82, 3.55 30.76, 4.7 51.03 C5.86 71.3, 7.18 109.44, 8.13 121.08" stroke="#000000" stroke-width="1" fill="none"></path></g></g><mask></mask><g mask="url(#mask-IOav0DIxKoRQVAEXn0kui)" stroke-linecap="round"><g transform="translate(548.666290961876 89.15537748191855) rotate(0 42.712055409881486 139.59363384122)"><path d="M-2.67 -2.76 C11.33 18.56, 79.4 81.27, 82.5 128.72 C85.61 176.17, 26.95 256.38, 15.97 281.94 M1.08 1.92 C16.14 22.36, 85.82 78.72, 88.03 124.62 C90.24 170.52, 26.06 251.91, 14.35 277.32" stroke="#000000" stroke-width="1" fill="none"></path></g><g transform="translate(548.666290961876 89.15537748191855) rotate(0 42.712055409881486 139.59363384122)"><path d="M16.23 245.59 C21.31 255.52, 19.83 263.71, 16.92 279.04 M18.19 248.75 C18.21 252.73, 17.53 260.33, 14.75 276.9" stroke="#000000" stroke-width="1" fill="none"></path></g><g transform="translate(548.666290961876 89.15537748191855) rotate(0 42.712055409881486 139.59363384122)"><path d="M33.79 256.22 C34.47 263.19, 28.67 268.76, 16.92 279.04 M35.74 259.38 C32.19 261.02, 27.75 266.34, 14.75 276.9" stroke="#000000" stroke-width="1" fill="none"></path></g></g><mask id="mask-IOav0DIxKoRQVAEXn0kui"><rect x="0" y="0" fill="#fff" width="732.7736712388428" height="469.44070845149747"></rect><rect x="618.5976839951902" y="206.1864074535378" fill="#000" width="28.351974487304688" height="20" opacity="1"></rect></mask><g transform="translate(618.5976839951904 206.1864074535378) rotate(0 -27.21933762343292 22.562603869600736)"><text x="14.175987243652344" y="0" font-family="Virgil, Segoe UI Emoji" font-size="16px" fill="#000000" text-anchor="middle" style="white-space: pre;" direction="ltr" dominant-baseline="text-before-edge">Ade</text></g><g mask="url(#mask-BVwEzZ0g9OzjZ-e_kuvUs)" stroke-linecap="round"><g transform="translate(416.2165439546477 90.00003557222556) rotate(0 -22.57101699286875 135.1837466725229)"><path d="M0.34 1.66 C-9.41 26.19, -62.83 104.4, -60.09 148.87 C-57.35 193.34, 4.58 248.21, 16.78 268.47 M-2.92 0.09 C-12.81 23.68, -64.88 99.8, -61.79 144.84 C-58.7 189.87, 3.27 248.96, 15.63 270.28" stroke="#000000" stroke-width="1" fill="none"></path></g><g transform="translate(416.2165439546477 90.00003557222556) rotate(0 -22.57101699286875 135.1837466725229)"><path d="M-0.77 32.87 C-0.08 25.95, -5.24 13.46, -0.34 -2.31 M-2.77 31.31 C-1.48 20.85, -1.45 12.57, 1.99 1.37" stroke="#000000" stroke-width="1" fill="none"></path></g><g transform="translate(416.2165439546477 90.00003557222556) rotate(0 -22.57101699286875 135.1837466725229)"><path d="M-19.11 23.67 C-13.86 18.93, -14.57 8.68, -0.34 -2.31 M-21.11 22.1 C-13.54 15.07, -7.21 9.95, 1.99 1.37" stroke="#000000" stroke-width="1" fill="none"></path></g></g><mask id="mask-BVwEzZ0g9OzjZ-e_kuvUs"><rect x="0" y="0" fill="#fff" width="592.8708033015084" height="460.8716447184269"></rect><rect x="342.24556962817155" y="227.06638246839157" fill="#000" width="25.775985717773438" height="20" opacity="1"></rect></mask><g transform="translate(342.24556962817155 227.06638246839157) rotate(0 51.399957333607404 -1.8826002236431236)"><text x="12.887992858886719" y="0" font-family="Virgil, Segoe UI Emoji" font-size="16px" fill="#000000" text-anchor="middle" style="white-space: pre;" direction="ltr" dominant-baseline="text-before-edge">Lys</text></g><g stroke-linecap="round" transform="translate(284.2294762237509 10) rotate(0 208.67715894566413 212.21405994474333)"><path d="M32 0 M32 0 C149.41 -2.12, 268.82 -2.26, 385.35 0 M32 0 C153.47 1.59, 274.83 1.51, 385.35 0 M385.35 0 C405.93 1.53, 419 10.37, 417.35 32 M385.35 0 C407.32 -0.5, 417.1 9.85, 417.35 32 M417.35 32 C414.99 154.83, 416.38 279.03, 417.35 392.43 M417.35 32 C419.73 124.42, 419.51 215.84, 417.35 392.43 M417.35 392.43 C419.18 415.14, 405.53 426.11, 385.35 424.43 M417.35 392.43 C417.19 415.69, 404.68 426.56, 385.35 424.43 M385.35 424.43 C291.26 422.69, 196.2 423.59, 32 424.43 M385.35 424.43 C307.02 424.92, 229.64 425.08, 32 424.43 M32 424.43 C11.28 423.71, -0.51 413.9, 0 392.43 M32 424.43 C9.18 424.96, 2.26 411.83, 0 392.43 M0 392.43 C-1.76 301.36, -1.94 207.15, 0 32 M0 392.43 C-1.8 287.93, -2.01 184.61, 0 32 M0 32 C1.82 10.4, 11.07 1.83, 32 0 M0 32 C0.9 11.48, 12.63 -0.88, 32 0" stroke="#000000" stroke-width="1" fill="none"></path></g><g stroke-linecap="round"><g transform="translate(276.67686434405755 227.81517038724098) rotate(0 -76.38350617815877 -2.35802761182552)"><path d="M-2.47 -0.47 C-28.36 -0.12, -129.29 0.21, -154.15 -0.29 M1.39 -3.2 C-23.8 -3.48, -123.43 -4.93, -149.26 -4.65" stroke="#000000" stroke-width="1" fill="none"></path></g><g transform="translate(276.67686434405755 227.81517038724098) rotate(0 -76.38350617815877 -2.35802761182552)"><path d="M-121.71 -18.78 C-129.16 -12.21, -143.47 -7.58, -149.55 -3.84 M-119.39 -15.1 C-128.44 -11.97, -137.09 -9.42, -148.42 -5.64" stroke="#000000" stroke-width="1" fill="none"></path></g><g transform="translate(276.67686434405755 227.81517038724098) rotate(0 -76.38350617815877 -2.35802761182552)"><path d="M-121.78 1.74 C-128.85 1.27, -143.14 -1.15, -149.55 -3.84 M-119.46 5.42 C-128.34 2.82, -136.96 -0.35, -148.42 -5.64" stroke="#000000" stroke-width="1" fill="none"></path></g></g><mask></mask><g stroke-linecap="round"><g transform="translate(715.3624560615924 219.48952414217968) rotate(0 61.58186352599421 1.8680275780586726)"><path d="M-2.78 1.22 C18.62 1.59, 104.36 1.4, 125.94 1.79 M0.91 -0.59 C22.14 0.13, 102.84 3.13, 123.56 4.33" stroke="#000000" stroke-width="1" fill="none"></path></g><g transform="translate(715.3624560615924 219.48952414217968) rotate(0 61.58186352599421 1.8680275780586726)"><path d="M96.66 12.89 C98.14 12.7, 106.79 10.86, 122.72 2.81 M95.47 12.85 C105.33 9.28, 117.18 5.63, 125.21 2.38" stroke="#000000" stroke-width="1" fill="none"></path></g><g transform="translate(715.3624560615924 219.48952414217968) rotate(0 61.58186352599421 1.8680275780586726)"><path d="M97.6 -7.61 C98.81 -3.47, 107.27 -0.97, 122.72 2.81 M96.41 -7.65 C106.26 -3.5, 117.75 0.56, 125.21 2.38" stroke="#000000" stroke-width="1" fill="none"></path></g></g><mask></mask><g transform="translate(21.404784947964117 184.39972566025472) rotate(0 10.274324619260824 -16.87924758878563)" stroke="none"><path fill="#000000" d="M -1.61,0 Q -1.61,0 -1.69,-2.11 -1.76,-4.22 -0.92,-9.07 -0.07,-13.92 1.14,-18.92 2.35,-23.92 2.87,-26.86 3.39,-29.79 5.22,-31.19 7.04,-32.59 8.74,-31.69 10.44,-30.79 12.60,-28.07 14.76,-25.35 16.88,-22.12 18.99,-18.88 19.99,-16.08 21.00,-13.29 21.79,-11.78 22.58,-10.27 22.67,-10.08 22.77,-9.88 22.79,-9.67 22.82,-9.46 22.78,-9.26 22.74,-9.05 22.64,-8.86 22.53,-8.68 22.38,-8.53 22.22,-8.39 22.02,-8.31 21.83,-8.22 21.62,-8.21 21.40,-8.19 21.20,-8.24 20.99,-8.29 20.81,-8.41 20.63,-8.52 20.50,-8.69 20.37,-8.85 20.29,-9.05 20.22,-9.25 20.21,-9.46 20.21,-9.68 20.27,-9.88 20.33,-10.08 20.46,-10.26 20.58,-10.43 20.75,-10.55 20.93,-10.68 21.13,-10.74 21.33,-10.80 21.55,-10.80 21.76,-10.79 21.96,-10.72 22.16,-10.64 22.32,-10.51 22.49,-10.38 22.60,-10.20 22.72,-10.02 22.77,-9.81 22.82,-9.61 22.80,-9.39 22.78,-9.18 22.70,-8.99 22.62,-8.79 22.47,-8.63 22.33,-8.48 22.15,-8.37 21.96,-8.27 21.75,-8.23 21.55,-8.19 21.33,-8.22 21.12,-8.24 20.93,-8.34 20.74,-8.43 20.59,-8.58 20.44,-8.73 20.44,-8.73 20.44,-8.73 18.96,-10.39 17.48,-12.04 16.71,-14.48 15.94,-16.91 13.89,-20.01 11.85,-23.12 9.34,-26.06 6.83,-29.00 6.33,-26.04 5.82,-23.08 4.64,-18.18 3.45,-13.29 2.60,-8.75 1.76,-4.21 1.69,-2.10 1.61,0 1.59,0.19 1.56,0.38 1.49,0.56 1.42,0.75 1.31,0.91 1.20,1.07 1.06,1.19 0.91,1.32 0.74,1.41 0.57,1.50 0.38,1.55 0.19,1.60 -0.00,1.60 -0.19,1.60 -0.38,1.55 -0.57,1.50 -0.74,1.41 -0.91,1.32 -1.06,1.19 -1.20,1.07 -1.31,0.91 -1.42,0.74 -1.49,0.56 -1.56,0.38 -1.59,0.19 -1.61,-0.00 -1.61,-0.00 L -1.61,0 Z"></path></g><g transform="translate(80.11521134374016 172.65764038109955) rotate(0 8.072683629419316 -2.2016409898416214)" stroke="none"><path fill="#000000" d="M -1.55,-0.42 Q -1.55,-0.42 -0.34,-5.08 0.86,-9.73 2.29,-13.47 3.71,-17.21 4.71,-18.76 5.71,-20.32 5.80,-20.50 5.90,-20.68 6.03,-20.84 6.17,-20.99 6.34,-21.11 6.51,-21.23 6.70,-21.30 6.90,-21.38 7.10,-21.40 7.31,-21.43 7.51,-21.40 7.72,-21.38 7.91,-21.30 8.10,-21.23 8.27,-21.11 8.44,-21.00 8.58,-20.84 8.72,-20.69 8.81,-20.50 8.91,-20.32 8.96,-20.12 9.01,-19.92 9.01,-19.71 9.01,-19.51 8.96,-19.31 8.91,-19.11 10.06,-15.33 11.20,-11.54 13.09,-5.91 14.97,-0.28 16.09,4.79 17.20,9.88 17.65,12.02 18.10,14.16 18.12,14.37 18.13,14.58 18.08,14.79 18.03,15.00 17.92,15.17 17.80,15.35 17.64,15.49 17.47,15.62 17.27,15.69 17.07,15.77 16.86,15.77 16.65,15.78 16.45,15.72 16.24,15.66 16.07,15.53 15.90,15.41 15.77,15.24 15.65,15.06 15.59,14.86 15.52,14.66 15.53,14.45 15.53,14.23 15.61,14.03 15.68,13.83 15.81,13.67 15.95,13.50 16.12,13.39 16.30,13.27 16.51,13.22 16.71,13.17 16.93,13.19 17.14,13.20 17.33,13.29 17.53,13.37 17.69,13.51 17.85,13.65 17.95,13.84 18.06,14.02 18.10,14.23 18.14,14.44 18.11,14.65 18.08,14.86 17.99,15.05 17.89,15.24 17.74,15.39 17.59,15.54 17.40,15.64 17.21,15.73 17.00,15.76 16.79,15.79 16.58,15.75 16.37,15.71 16.19,15.61 16.00,15.50 15.86,15.35 15.72,15.19 15.63,14.99 15.55,14.80 15.55,14.80 15.55,14.80 14.93,12.70 14.32,10.61 12.94,5.73 11.56,0.86 9.55,-5.03 7.55,-10.93 7.11,-14.23 6.67,-17.54 6.19,-18.93 5.71,-20.32 5.80,-20.50 5.90,-20.68 6.03,-20.84 6.17,-20.99 6.34,-21.11 6.51,-21.23 6.70,-21.30 6.90,-21.38 7.10,-21.40 7.31,-21.43 7.51,-21.40 7.72,-21.38 7.91,-21.30 8.10,-21.23 8.27,-21.11 8.44,-21.00 8.58,-20.84 8.72,-20.69 8.81,-20.50 8.91,-20.32 8.96,-20.12 9.01,-19.92 9.01,-19.71 9.01,-19.51 8.96,-19.31 8.91,-19.11 7.89,-17.55 6.87,-15.99 5.53,-12.41 4.19,-8.82 2.87,-4.20 1.55,0.42 1.48,0.60 1.41,0.78 1.29,0.94 1.18,1.09 1.03,1.22 0.88,1.35 0.70,1.43 0.53,1.52 0.34,1.56 0.15,1.60 -0.03,1.60 -0.23,1.59 -0.42,1.54 -0.60,1.49 -0.77,1.39 -0.94,1.30 -1.09,1.17 -1.23,1.04 -1.34,0.87 -1.44,0.71 -1.51,0.53 -1.57,0.34 -1.59,0.15 -1.61,-0.03 -1.58,-0.23 -1.55,-0.42 -1.55,-0.42 L -1.55,-0.42 Z"></path></g><g transform="translate(888.8513349455559 174.1254010409939) rotate(0 6.60492296952475 -12.475965609102417)" stroke="none"><path fill="#000000" d="M 0,1.61 Q 0,1.61 -0.84,1.72 -1.68,1.82 -1.90,1.80 -2.12,1.77 -2.33,1.69 -2.53,1.61 -2.71,1.49 -2.90,1.36 -3.04,1.20 -3.19,1.03 -3.29,0.84 -3.39,0.64 -3.44,0.43 -3.50,0.22 -3.50,-0.00 -3.50,-0.22 -3.44,-0.43 -3.39,-0.64 -3.29,-0.84 -3.19,-1.03 -3.04,-1.20 -2.89,-1.36 -2.71,-1.49 -2.53,-1.61 -2.33,-1.69 -2.12,-1.77 -1.90,-1.80 -1.68,-1.82 -1.65,-5.70 -1.61,-9.57 -0.38,-14.14 0.84,-18.71 1.76,-21.19 2.69,-23.66 3.10,-24.23 3.50,-24.80 3.61,-25.00 3.73,-25.20 3.88,-25.37 4.04,-25.54 4.23,-25.67 4.42,-25.80 4.64,-25.88 4.85,-25.95 5.08,-25.98 5.31,-26.00 5.54,-25.97 5.76,-25.94 5.98,-25.85 6.19,-25.77 6.38,-25.63 6.57,-25.50 6.72,-25.32 6.87,-25.15 6.97,-24.94 7.07,-24.74 7.12,-24.51 7.17,-24.29 7.17,-24.06 7.17,-23.83 7.11,-23.61 7.05,-23.39 8.39,-22.45 9.73,-21.51 10.93,-17.46 12.14,-13.40 13.39,-9.77 14.65,-6.13 15.43,-4.54 16.21,-2.95 16.37,-2.82 16.53,-2.68 16.64,-2.50 16.75,-2.31 16.80,-2.11 16.84,-1.90 16.82,-1.69 16.80,-1.48 16.71,-1.28 16.62,-1.09 16.47,-0.94 16.33,-0.78 16.14,-0.68 15.95,-0.58 15.74,-0.55 15.53,-0.51 15.32,-0.55 15.11,-0.58 14.93,-0.68 14.74,-0.78 14.59,-0.94 14.45,-1.09 14.36,-1.28 14.27,-1.47 14.24,-1.69 14.22,-1.90 14.27,-2.10 14.31,-2.31 14.42,-2.49 14.53,-2.68 14.69,-2.81 14.85,-2.95 15.05,-3.03 15.25,-3.11 15.46,-3.12 15.67,-3.13 15.88,-3.08 16.08,-3.02 16.26,-2.90 16.44,-2.78 16.56,-2.61 16.69,-2.44 16.76,-2.24 16.83,-2.04 16.83,-1.83 16.83,-1.62 16.76,-1.41 16.69,-1.21 16.57,-1.04 16.44,-0.87 16.26,-0.76 16.09,-0.64 15.88,-0.58 15.68,-0.52 15.46,-0.53 15.25,-0.54 15.05,-0.62 14.86,-0.70 14.86,-0.70 14.86,-0.70 12.88,-2.75 10.90,-4.81 9.59,-8.57 8.29,-12.34 7.43,-15.78 6.57,-19.22 5.04,-22.01 3.50,-24.80 3.61,-25.00 3.73,-25.20 3.88,-25.37 4.04,-25.54 4.23,-25.67 4.42,-25.80 4.64,-25.88 4.85,-25.95 5.08,-25.98 5.31,-26.00 5.54,-25.97 5.76,-25.94 5.98,-25.85 6.19,-25.77 6.38,-25.63 6.57,-25.50 6.72,-25.32 6.87,-25.15 6.97,-24.94 7.07,-24.74 7.12,-24.52 7.17,-24.29 7.17,-24.06 7.17,-23.83 7.11,-23.61 7.05,-23.39 6.66,-22.80 6.27,-22.21 5.32,-19.99 4.37,-17.76 3.17,-13.25 1.98,-8.73 1.14,-5.14 0.30,-1.54 -0.69,0.14 -1.68,1.82 -1.90,1.80 -2.12,1.77 -2.33,1.69 -2.53,1.61 -2.71,1.49 -2.89,1.36 -3.04,1.20 -3.19,1.03 -3.29,0.84 -3.39,0.64 -3.44,0.43 -3.50,0.22 -3.50,0.00 -3.50,-0.22 -3.44,-0.43 -3.39,-0.64 -3.29,-0.84 -3.19,-1.03 -3.04,-1.20 -2.90,-1.36 -2.71,-1.49 -2.53,-1.61 -2.33,-1.69 -2.12,-1.77 -1.90,-1.80 -1.68,-1.82 -0.84,-1.72 0,-1.61 0.19,-1.59 0.38,-1.56 0.56,-1.49 0.75,-1.42 0.91,-1.31 1.07,-1.20 1.19,-1.06 1.32,-0.91 1.41,-0.74 1.50,-0.57 1.55,-0.38 1.60,-0.19 1.60,0.00 1.60,0.19 1.55,0.38 1.50,0.57 1.41,0.74 1.32,0.91 1.19,1.06 1.07,1.20 0.91,1.31 0.74,1.42 0.56,1.49 0.38,1.56 0.19,1.59 -0.00,1.61 -0.00,1.61 L 0,1.61 Z"></path></g><g transform="translate(928.4808727627044 168.2543584014163) rotate(0 12.475965609102445 -3.6694016497359883)" stroke="none"><path fill="#000000" d="M -1.56,-0.39 Q -1.56,-0.39 -1.25,-2.10 -0.93,-3.82 0.16,-6.35 1.25,-8.89 3.06,-11.35 4.86,-13.81 5.71,-15.25 6.56,-16.69 7.80,-17.16 9.04,-17.64 10.34,-17.17 11.63,-16.71 12.71,-14.97 13.79,-13.23 15.37,-10.57 16.95,-7.91 19.27,-4.25 21.60,-0.59 23.41,3.65 25.23,7.90 25.29,8.10 25.35,8.31 25.35,8.52 25.34,8.73 25.27,8.93 25.20,9.13 25.07,9.30 24.93,9.46 24.76,9.58 24.58,9.69 24.37,9.75 24.17,9.80 23.95,9.78 23.74,9.77 23.55,9.68 23.35,9.60 23.19,9.46 23.03,9.32 22.93,9.13 22.82,8.95 22.78,8.74 22.74,8.53 22.77,8.32 22.79,8.11 22.89,7.92 22.98,7.73 23.13,7.58 23.28,7.43 23.47,7.33 23.66,7.24 23.87,7.21 24.08,7.18 24.29,7.22 24.50,7.26 24.68,7.36 24.87,7.46 25.01,7.62 25.15,7.78 25.24,7.97 25.32,8.17 25.34,8.38 25.36,8.59 25.31,8.80 25.26,9.00 25.15,9.18 25.03,9.36 24.87,9.50 24.70,9.63 24.51,9.70 24.31,9.78 24.09,9.79 23.88,9.79 23.68,9.73 23.47,9.67 23.30,9.55 23.13,9.42 23.00,9.25 22.88,9.08 22.88,9.08 22.88,9.08 20.63,5.26 18.39,1.44 15.99,-2.25 13.60,-5.96 12.02,-8.73 10.45,-11.49 9.68,-12.95 8.91,-14.40 8.31,-13.05 7.71,-11.70 6.11,-9.59 4.52,-7.47 3.57,-5.20 2.62,-2.92 2.09,-1.26 1.56,0.39 1.49,0.57 1.42,0.75 1.31,0.91 1.20,1.07 1.05,1.20 0.91,1.33 0.73,1.42 0.56,1.51 0.37,1.55 0.18,1.60 -0.00,1.60 -0.19,1.60 -0.38,1.55 -0.57,1.50 -0.74,1.41 -0.92,1.32 -1.06,1.19 -1.21,1.06 -1.32,0.90 -1.43,0.74 -1.50,0.56 -1.56,0.38 -1.59,0.18 -1.61,-0.00 -1.58,-0.19 -1.56,-0.39 -1.56,-0.39 L -1.56,-0.39 Z"></path></g></svg>